<?xml version="1.0" standalone="no"?>
<!DOCTYPE svg PUBLIC "-//W3C//DTD SVG 20010904//EN"
 "http://www.w3.org/TR/2001/REC-SVG-20010904/DTD/svg10.dtd">
<svg version="1.0" xmlns="http://www.w3.org/2000/svg"
 width="512.000000pt" height="512.000000pt" viewBox="0 0 512.000000 512.000000"
 preserveAspectRatio="xMidYMid meet">
<metadata>
Created by potrace 1.14, written by Peter Selinger 2001-2017
</metadata>
<g transform="translate(0.000000,512.000000) scale(0.100000,-0.100000)"
fill="#000000" stroke="none">
<path d="M0 2722 l0 -2399 30 5 c25 4 30 0 36 -23 7 -30 -6 -45 -43 -45 -23 0
-23 -2 -23 -130 l0 -130 2560 0 2560 0 0 2560 0 2560 -2560 0 -2560 0 0 -2398z
m4772 2156 c-9 -9 -15 -9 -24 0 -9 9 -7 12 12 12 19 0 21 -3 12 -12z m33 -18
c3 -5 1 -10 -4 -10 -6 0 -11 5 -11 10 0 6 2 10 4 10 3 0 8 -4 11 -10z m-1110
-540 c3 -5 -1 -10 -10 -10 -9 0 -13 5 -10 10 3 6 8 10 10 10 2 0 7 -4 10 -10z
m-2395 -278 c0 -13 -12 -22 -22 -16 -10 6 -1 24 13 24 5 0 9 -4 9 -8z m980
-712 c0 -5 -2 -10 -4 -10 -3 0 -8 5 -11 10 -3 6 -1 10 4 10 6 0 11 -4 11 -10z
m584 -46 c29 -28 16 -55 -32 -67 -17 -4 -23 0 -28 18 -7 27 11 65 31 65 7 0
21 -7 29 -16z m-812 -19 c22 -25 48 -33 48 -15 0 6 3 9 8 8 4 -1 25 2 46 7 25
5 46 4 57 -3 13 -8 20 -8 29 2 17 21 58 28 83 14 12 -7 26 -11 30 -10 5 1 11
-7 14 -18 6 -24 29 -21 25 4 -3 17 6 20 32 10 9 -3 14 -10 11 -14 -9 -14 14
-22 32 -11 11 6 13 11 5 11 -7 0 -11 4 -8 9 7 11 24 9 54 -7 12 -7 22 -9 22
-5 0 4 16 -9 35 -29 33 -37 55 -48 55 -28 0 6 10 10 21 10 28 0 69 -45 69 -76
0 -13 5 -24 10 -24 6 0 10 4 10 9 0 5 8 7 18 4 10 -2 18 -12 18 -22 0 -12 -5
-17 -15 -13 -11 4 -12 1 -3 -13 7 -14 24 -19 61 -22 54 -3 79 -12 106 -39 14
-14 18 -15 33 -2 24 20 92 51 99 44 6 -6 -24 -56 -43 -71 -7 -5 -14 -23 -16
-40 -2 -24 1 -30 17 -30 38 0 46 -14 39 -61 -7 -52 15 -89 48 -78 21 6 22 1 8
-26 -8 -16 -7 -18 4 -14 11 4 13 0 9 -15 -4 -15 -1 -21 11 -21 10 0 14 -4 11
-10 -3 -5 -1 -10 4 -10 6 0 11 -7 11 -15 0 -8 4 -15 9 -15 4 0 6 -22 3 -50 -4
-45 -2 -50 15 -50 27 0 35 -10 22 -27 -9 -10 -7 -21 5 -46 8 -17 16 -26 16
-19 0 6 5 12 10 12 12 0 13 -37 1 -44 -5 -3 -7 -15 -4 -26 3 -12 8 -18 11 -16
9 10 31 -28 22 -39 -14 -18 -23 -95 -11 -95 6 0 11 7 11 16 0 8 5 12 10 9 18
-11 10 -35 -15 -45 -30 -11 -34 -25 -5 -17 22 6 29 -17 9 -29 -8 -5 -8 -9 1
-14 6 -4 12 -22 13 -41 2 -28 -2 -34 -19 -35 -12 -1 -26 -4 -31 -7 -15 -9 -23
-47 -11 -47 10 0 6 -27 -8 -64 -4 -11 -1 -16 11 -16 16 0 16 -2 2 -22 -8 -13
-22 -22 -30 -22 -9 1 -13 -4 -10 -12 3 -9 -2 -14 -18 -14 -13 0 -35 -11 -50
-26 -20 -19 -32 -24 -52 -19 -14 4 -28 14 -30 23 -3 13 -7 10 -17 -10 -13 -28
-30 -37 -30 -17 0 6 -8 18 -17 27 -15 16 -16 16 -11 0 10 -24 -3 -30 -29 -13
-31 21 -59 11 -68 -22 -4 -19 -1 -31 14 -45 12 -10 21 -23 21 -28 0 -15 -18
-12 -27 3 -4 8 -18 16 -30 19 -20 5 -21 4 -12 -14 14 -27 1 -38 -17 -14 -11
16 -16 17 -29 6 -13 -10 -15 -9 -15 7 0 24 19 43 42 43 10 0 18 5 18 11 0 7
-7 8 -17 3 -10 -4 -28 -7 -41 -7 -12 1 -22 -4 -21 -11 5 -39 -1 -45 -33 -40
-68 11 -118 29 -118 41 0 7 -9 13 -20 13 -12 0 -20 7 -20 18 0 9 -9 23 -20 30
-11 7 -20 21 -20 32 0 11 -6 19 -12 17 -7 -1 -13 7 -12 19 0 19 -4 21 -43 16
-33 -3 -44 -1 -49 12 -4 10 -18 16 -35 16 -19 0 -29 5 -29 14 0 18 -12 26 -44
32 -23 4 -86 57 -86 72 0 4 -19 15 -41 25 -39 17 -41 20 -36 52 4 24 1 35 -9
39 -8 3 -14 17 -14 31 0 18 -5 25 -19 25 -11 0 -23 12 -31 30 -14 33 -20 36
-38 18 -9 -9 -15 -9 -24 0 -10 10 -8 14 10 18 12 4 22 10 22 15 0 13 -24 11
-37 -2 -8 -8 -17 -5 -32 12 -33 37 -45 52 -64 82 -11 17 -26 27 -42 27 -17 0
-25 6 -25 18 0 13 -2 14 -9 4 -6 -10 -10 -3 -15 23 -4 20 -19 48 -33 61 -21
19 -25 30 -20 58 4 25 1 36 -9 40 -13 5 -13 9 1 30 15 23 15 25 -9 43 -14 11
-28 32 -32 47 -3 15 -13 30 -20 33 -20 7 -17 21 5 28 27 8 47 70 30 91 -6 8
-9 17 -6 21 4 3 1 15 -5 27 -20 35 -19 54 2 61 11 3 19 9 17 13 -2 7 17 29 71
85 15 15 33 25 40 22 7 -2 15 2 18 10 4 8 14 15 23 16 10 0 11 2 4 6 -7 2 -13
11 -13 19 0 16 42 29 65 20 9 -3 18 1 20 9 3 8 7 22 10 30 7 25 62 19 87 -10z
m1288 -975 c0 -5 -4 -10 -10 -10 -5 0 -10 5 -10 10 0 6 5 10 10 10 6 0 10 -4
10 -10z m-63 -282 c-3 -8 -6 -5 -6 6 -1 11 2 17 5 13 3 -3 4 -12 1 -19z
m-1967 -128 c0 -5 -5 -10 -11 -10 -5 0 -7 5 -4 10 3 6 8 10 11 10 2 0 4 -4 4
-10z m1605 -50 c3 -5 -3 -10 -15 -10 -12 0 -18 5 -15 10 3 6 10 10 15 10 5 0
12 -4 15 -10z m35 -20 c0 -5 -5 -10 -11 -10 -5 0 -7 5 -4 10 3 6 8 10 11 10 2
0 4 -4 4 -10z m20 -60 c0 -5 -2 -10 -4 -10 -3 0 -8 5 -11 10 -3 6 -1 10 4 10
6 0 11 -4 11 -10z m-70 -32 c0 -5 -9 -8 -20 -8 -13 0 -20 7 -20 20 0 18 2 19
20 8 11 -7 20 -16 20 -20z m-153 -4 c-9 -9 -28 6 -21 18 4 6 10 6 17 -1 6 -6
8 -13 4 -17z m550 -9 c6 -2 14 -18 18 -35 11 -50 -41 -97 -95 -85 -22 5 -29
13 -34 41 -5 22 -13 34 -23 34 -13 0 -13 3 -3 15 7 9 20 13 28 10 8 -3 16 3
19 15 5 17 11 20 42 14 20 -3 41 -7 48 -9z m-427 -26 c0 -5 -7 -9 -15 -9 -15
0 -20 12 -9 23 8 8 24 -1 24 -14z m65 -59 c-3 -5 -10 -10 -16 -10 -5 0 -9 5
-9 10 0 6 7 10 16 10 8 0 12 -4 9 -10z m75 -90 c0 -5 -4 -10 -10 -10 -5 0 -10
5 -10 10 0 6 5 10 10 10 6 0 10 -4 10 -10z m1066 -541 c3 -6 0 -15 -7 -20 -7
-4 -10 -11 -6 -15 3 -4 13 -2 20 4 8 7 17 8 22 4 4 -4 6 2 3 13 -4 18 0 20 38
19 111 -4 204 -53 204 -108 0 -16 6 -26 14 -26 8 0 17 -16 21 -37 5 -21 10
-45 12 -53 9 -31 9 -65 0 -77 -5 -7 -6 -16 -3 -21 3 -6 0 -15 -8 -21 -7 -6
-16 -25 -20 -42 -3 -16 -17 -40 -31 -53 -14 -13 -25 -28 -25 -35 0 -21 -40
-51 -68 -51 -15 0 -45 -12 -65 -26 -39 -26 -103 -39 -113 -23 -3 5 -16 9 -30
9 -13 0 -24 5 -24 11 0 6 -11 20 -25 30 -14 12 -22 26 -18 34 3 9 -1 15 -11
15 -9 0 -16 8 -16 17 0 9 -6 24 -14 32 -21 25 -29 142 -12 166 9 13 11 24 5
31 -16 19 1 45 24 38 16 -5 19 -3 14 10 -4 9 -10 22 -13 30 -3 8 3 16 15 19
13 3 19 11 16 19 -4 9 7 21 30 34 21 11 33 24 30 32 -2 7 2 15 11 19 8 3 13
12 10 19 -6 17 10 19 20 3z"/>
<path d="M2276 3261 c-4 -7 -5 -15 -2 -18 9 -9 19 4 14 18 -4 11 -6 11 -12 0z"/>
<path d="M2630 3156 c0 -8 9 -20 21 -26 19 -11 20 -10 10 9 -15 27 -31 36 -31
17z"/>
<path d="M1975 2650 c4 -6 11 -8 16 -5 14 9 11 15 -7 15 -8 0 -12 -5 -9 -10z"/>
<path d="M2391 2004 c0 -11 3 -14 6 -6 3 7 2 16 -1 19 -3 4 -6 -2 -5 -13z"/>
<path d="M3205 1930 c3 -5 8 -10 11 -10 2 0 4 5 4 10 0 6 -5 10 -11 10 -5 0
-7 -4 -4 -10z"/>
<path d="M3056 1875 c-3 -9 0 -15 9 -15 8 0 15 7 15 15 0 8 -4 15 -9 15 -5 0
-11 -7 -15 -15z"/>
</g>
</svg>
